<?xml version="1.0" encoding="UTF-8" standalone="no"?>
<!-- Created with Inkscape (http://www.inkscape.org/) -->

<svg
   width="297mm"
   height="210mm"
   viewBox="0 0 297 210"
   version="1.1"
   id="svg5"
   inkscape:version="1.2.2 (732a01da63, 2022-12-09)"
   sodipodi:docname="image50 ALS-XZ.svg"
   xmlns:inkscape="http://www.inkscape.org/namespaces/inkscape"
   xmlns:sodipodi="http://sodipodi.sourceforge.net/DTD/sodipodi-0.dtd"
   xmlns="http://www.w3.org/2000/svg"
   xmlns:svg="http://www.w3.org/2000/svg">
  <sodipodi:namedview
     id="namedview7"
     pagecolor="#ffffff"
     bordercolor="#000000"
     borderopacity="0.25"
     inkscape:showpageshadow="2"
     inkscape:pageopacity="0.0"
     inkscape:pagecheckerboard="0"
     inkscape:deskcolor="#d1d1d1"
     inkscape:document-units="mm"
     showgrid="false"
     inkscape:zoom="0.91490602"
     inkscape:cx="515.35348"
     inkscape:cy="279.26366"
     inkscape:window-width="2132"
     inkscape:window-height="1398"
     inkscape:window-x="951"
     inkscape:window-y="523"
     inkscape:window-maximized="0"
     inkscape:current-layer="layer1" />
  <defs
     id="defs2" />
  <g
     inkscape:label="Layer 1"
     inkscape:groupmode="layer"
     id="layer1">
    <g
       id="g457"
       transform="matrix(1.3832416,0,0,1.3832416,-7.0899971,-4.2774666)"
       inkscape:export-filename="img50b.png"
       inkscape:export-xdpi="96"
       inkscape:export-ydpi="96">
      <rect
         x="25.477079"
         y="102.15809"
         fill="#ffffff"
         fill-opacity="1"
         stroke-width="0.174114"
         stroke-linejoin="round"
         stroke="#000000"
         stroke-opacity="1"
         width="31.340506"
         height="6.2681012"
         id="rect4672"
         inkscape:export-filename="img50b.png"
         inkscape:export-xdpi="96"
         inkscape:export-ydpi="96" />
      <rect
         x="25.477079"
         y="89.621887"
         fill="#ffffff"
         fill-opacity="1"
         stroke-width="0.174114"
         stroke-linejoin="round"
         stroke="#000000"
         stroke-opacity="1"
         width="37.608608"
         height="6.2681012"
         id="rect4674" />
      <text
         xml:space="preserve"
         id="text4678"
         x="27.532793"
         y="93.727669"
         style="font-size:0.783513px;stroke-width:0.0652927">		 <tspan
   style="font-size:3.13405px;font-family:'メイリオ'"
   letter-spacing="0em"
   fill="#000000"
   fill-opacity="1"
   stroke-width="0.0130585"
   stroke-linejoin="round"
   id="tspan4676">x</tspan>	</text>
      <text
         xml:space="preserve"
         id="text4682"
         x="38.254814"
         y="93.270805"
         style="font-size:0.783513px;stroke-width:0.0652927">		 <tspan
   style="font-size:3.13405px;font-family:'メイリオ'"
   letter-spacing="0em"
   fill="#000000"
   fill-opacity="1"
   stroke-width="0.0130585"
   stroke-linejoin="round"
   id="tspan4680">y</tspan>	</text>
      <text
         xml:space="preserve"
         id="text4686"
         x="27.431356"
         y="106.06191"
         style="font-size:0.783513px;stroke-width:0.0652927">		 <tspan
   style="font-size:3.13405px;font-family:'メイリオ'"
   letter-spacing="0em"
   fill="#000000"
   fill-opacity="1"
   stroke-width="0.0130585"
   stroke-linejoin="round"
   id="tspan4684">x</tspan>	</text>
      <text
         xml:space="preserve"
         id="text4690"
         x="54.708576"
         y="89.098892"
         style="font-size:0.783513px;stroke-width:0.0652927">		 <tspan
   style="font-size:3.13405px;font-family:'メイリオ'"
   letter-spacing="0em"
   fill="#000000"
   fill-opacity="1"
   stroke-width="0.0130585"
   stroke-linejoin="round"
   id="tspan4688">ALS1</tspan>	</text>
      <text
         xml:space="preserve"
         id="text4694"
         x="48.440479"
         y="101.63509"
         style="font-size:0.783513px;stroke-width:0.0652927">		 <tspan
   style="font-size:3.13405px;font-family:'メイリオ'"
   letter-spacing="0em"
   fill="#000000"
   fill-opacity="1"
   stroke-width="0.0130585"
   stroke-linejoin="round"
   id="tspan4692">ALS2</tspan>	</text>
      <text
         xml:space="preserve"
         id="text4698"
         x="23.368071"
         y="85.442497"
         style="font-size:0.783513px;stroke-width:0.0652927">		 <tspan
   style="font-size:3.13405px;font-family:'メイリオ'"
   letter-spacing="0em"
   fill="#000000"
   fill-opacity="1"
   stroke-width="0.0130585"
   stroke-linejoin="round"
   id="tspan4696">RCC:x</tspan>	</text>
      <text
         xml:space="preserve"
         id="text4704"
         x="26.119951"
         y="119.93929"
         style="font-size:0.783513px;stroke-width:0.0652927">		 <tspan
   style="font-size:3.13405px;font-family:'メイリオ'"
   letter-spacing="0em"
   fill="#000000"
   fill-opacity="1"
   stroke-width="0.0130585"
   stroke-linejoin="round"
   id="tspan4702">ALS-XZ(Doubly Linked)</tspan>	</text>
      <text
         xml:space="preserve"
         id="text4708"
         x="35.904274"
         y="85.442497"
         style="font-size:0.783513px;stroke-width:0.0652927">		 <tspan
   style="font-size:3.13405px;font-family:'メイリオ'"
   letter-spacing="0em"
   fill="#000000"
   fill-opacity="1"
   stroke-width="0.0130585"
   stroke-linejoin="round"
   id="tspan4706">RCC:y</tspan>	</text>
      <text
         xml:space="preserve"
         id="text4712"
         x="38.102089"
         y="105.97466"
         style="font-size:0.783513px;stroke-width:0.0652927">		 <tspan
   style="font-size:3.13405px;font-family:'メイリオ'"
   letter-spacing="0em"
   fill="#000000"
   fill-opacity="1"
   stroke-width="0.0130585"
   stroke-linejoin="round"
   id="tspan4710">y</tspan>	</text>
      <text
         xml:space="preserve"
         id="text4716"
         x="45.698185"
         y="106.27087"
         style="font-size:0.783513px;stroke-width:0.0652927">		 <tspan
   style="font-size:3.13405px;font-family:'メイリオ'"
   letter-spacing="0em"
   fill="#000000"
   fill-opacity="1"
   stroke-width="0.0130585"
   stroke-linejoin="round"
   id="tspan4714">z</tspan>	</text>
      <rect
         x="46.333771"
         y="110.03654"
         fill="#ffffff"
         fill-opacity="1"
         stroke-width="0.174114"
         stroke-linejoin="round"
         stroke="#000000"
         stroke-opacity="1"
         width="3.3429351"
         height="3.6563923"
         id="rect4718" />
      <text
         xml:space="preserve"
         id="text4722"
         x="45.72842"
         y="112.757"
         style="font-size:0.783513px;stroke-width:0.0652927">			 <tspan
   style="font-size:3.13405px;font-family:'メイリオ'"
   letter-spacing="0em"
   fill="#000000"
   fill-opacity="1"
   stroke-width="0.0130585"
   stroke-linejoin="round"
   id="tspan4720">z</tspan>		</text>
      <text
         xml:space="preserve"
         id="text4728"
         x="49.681038"
         y="106.33616"
         style="font-size:0.783513px;stroke-width:0.0652927">		 <tspan
   style="font-size:3.13405px;font-family:'メイリオ'"
   letter-spacing="0em"
   fill="#000000"
   fill-opacity="1"
   stroke-width="0.0130585"
   stroke-linejoin="round"
   id="tspan4726">z</tspan>	</text>
      <path
         fill="#000000"
         fill-opacity="1"
         stroke-linejoin="round"
         d="m 46.024646,102.98165 h 0.868393 v 0.1814 h -0.868393 z m 1.743315,0 h 0.868393 v 0.1814 h -0.868393 z m 1.736787,0 h 0.874922 v 0.1814 h -0.874922 z m 1.743315,0 h 0.868393 v 0.1814 h -0.868393 z m 1.743316,0 h 0.868393 v 0.1814 h -0.868393 z m 0.979391,0.97429 v 0.90566 h -0.176291 v -0.90566 z m 0,1.81133 v 0.90634 h -0.176291 v -0.90634 z m 0,1.81202 v 0.90566 h -0.176291 v -0.90566 z m 0,1.812 v 0.90567 h -0.176291 v -0.90567 z m 0,1.81134 v 0.90634 h -0.176291 v -0.90634 z m 0,1.81201 v 0.90567 h -0.176291 v -0.90567 z m -0.221996,1.76649 h -0.868393 v -0.1814 h 0.868393 z m -1.736786,0 h -0.874922 v -0.1814 h 0.874922 z m -1.743316,0 h -0.868393 v -0.1814 h 0.868393 z m -1.743315,0 h -0.868393 v -0.1814 h 0.868393 z m -1.736786,0 h -0.874923 v -0.1814 h 0.874923 z m -1.743316,0 h -0.763925 -0.0065 l -0.0065,-0.001 -0.01306,-0.003 -0.0065,-0.003 -0.0065,-0.004 -0.0065,-0.004 -0.0065,-0.005 -0.0065,-0.006 -0.0065,-0.007 -0.0065,-0.007 v -0.007 l -0.0065,-0.008 v -0.008 l -0.0065,-0.008 v -0.008 -0.008 -0.11346 h 0.17629 v 0.11346 l -0.09141,-0.0911 h 0.763925 z m -0.848805,-1.10949 v -0.90634 h 0.17629 v 0.90634 z m 0,-1.81201 v -0.90566 h 0.17629 v 0.90566 z m 0,-1.81202 v -0.90566 h 0.17629 v 0.90566 z m 0,-1.81133 v -0.90635 h 0.17629 v 0.90635 z m 0,-1.81201 v -0.90567 h 0.17629 v 0.90567 z m 0,-1.81202 v -0.90566 h 0.17629 v 0.90566 z m 0.08488,-1.6306 h 0.874923 v 0.1814 H 44.28133 Z"
         id="path4730"
         style="stroke-width:0.0666042" />
      <rect
         x="27.715803"
         y="110.26252"
         fill="#ffffff"
         fill-opacity="1"
         stroke-width="0.174114"
         stroke-linejoin="round"
         stroke="#000000"
         stroke-opacity="1"
         width="3.3430655"
         height="3.6563923"
         id="rect4732" />
      <rect
         x="38.280125"
         y="110.22637"
         fill="#ffffff"
         fill-opacity="1"
         stroke-width="0.174114"
         stroke-linejoin="round"
         stroke="#000000"
         stroke-opacity="1"
         width="3.3429351"
         height="3.6563923"
         id="rect4740" />
      <text
         xml:space="preserve"
         id="text4744"
         x="37.755772"
         y="112.64854"
         style="font-size:0.783513px;stroke-width:0.0652927">			 <tspan
   style="font-size:3.13405px;font-family:'メイリオ'"
   letter-spacing="0em"
   fill="#000000"
   fill-opacity="1"
   stroke-width="0.0130585"
   stroke-linejoin="round"
   id="tspan4742">y</tspan>		</text>
      <line
         fill="none"
         stroke-width="0.248384"
         stroke-linejoin="round"
         stroke="#ff0000"
         stroke-opacity="1"
         x1="31.684519"
         y1="109.91723"
         x2="27.083979"
         y2="114.26217"
         id="line4748" />
      <rect
         x="17.837019"
         y="79.16629"
         fill="none"
         stroke-width="0.183078"
         stroke-linejoin="round"
         stroke="#000000"
         stroke-opacity="1"
         width="52.22784"
         height="36.964951"
         id="rect7342" />
      <path
         fill="#000000"
         fill-opacity="1"
         stroke-linejoin="round"
         d="m 29.655119,89.693107 v 0.87101 h -0.169761 v -0.87101 z m 0,1.74136 v 0.87035 h -0.169761 v -0.87035 z m 0,1.74135 v 0.87036 h -0.169761 v -0.87036 z m 0,1.74071 v 0.871 h -0.169761 v -0.871 z m 0,1.74135 v 0.87036 h -0.169761 v -0.87036 z m 0,1.74136 v 0.87035 h -0.169761 v -0.87035 z m 0,1.740713 v 0.871 h -0.169761 v -0.871 z m 0,1.74135 v 0.87035 h -0.169761 v -0.87035 z m 0,1.74136 v 0.87035 h -0.169761 v -0.87035 z m 0,1.7407 v 0.87101 h -0.169761 v -0.87101 z m 0,1.74136 v 0.87035 h -0.169761 v -0.87035 z m 0,1.74136 v 0.87035 h -0.169761 v -0.87035 z m 0,1.7407 v 0.87101 h -0.169761 v -0.87101 z m 0,1.74136 v 0.87035 h -0.169761 v -0.87035 z m 0,-24.375733 v 0.87035 h -0.169761 v -0.87035 z"
         id="path4670"
         style="stroke-width:0.0652927" />
      <path
         fill="#000000"
         fill-opacity="1"
         stroke-linejoin="round"
         d="m 40.258796,89.991077 v 0.87101 h -0.17629 v -0.87101 z m 0,1.74136 v 0.87035 h -0.17629 v -0.87035 z m 0,1.74135 v 0.87036 h -0.17629 v -0.87036 z m 0,1.74071 v 0.871 h -0.17629 v -0.871 z m 0,1.74135 v 0.87036 h -0.17629 v -0.87036 z m 0,1.74136 v 0.87035 h -0.17629 v -0.87035 z m 0,1.740713 v 0.871 h -0.17629 v -0.871 z m 0,1.74135 v 0.87035 h -0.17629 v -0.87035 z m 0,1.74136 v 0.87035 h -0.17629 v -0.87035 z m 0,1.7407 v 0.87101 h -0.17629 v -0.87101 z m 0,1.74136 v 0.87035 h -0.17629 v -0.87035 z m 0,1.74136 v 0.87035 h -0.17629 v -0.87035 z m 0,1.7407 v 0.87101 h -0.17629 v -0.87101 z m 0,1.74136 v 0.69667 h -0.17629 v -0.69667 z m 0,-24.375733 v 0.87035 h -0.17629 v -0.87035 z"
         id="path4668"
         style="stroke-width:0.0652927" />
      <text
         xml:space="preserve"
         id="text7349"
         x="27.431356"
         y="112.93021"
         style="font-size:0.783513px;stroke-width:0.0652927">		 <tspan
   style="font-size:3.13405px;font-family:'メイリオ'"
   letter-spacing="0em"
   fill="#000000"
   fill-opacity="1"
   stroke-width="0.0130585"
   stroke-linejoin="round"
   id="tspan7347">x</tspan>	</text>
      <line
         fill="none"
         stroke-width="0.248384"
         stroke-linejoin="round"
         stroke="#ff0000"
         stroke-opacity="1"
         x1="42.113483"
         y1="109.86611"
         x2="37.512943"
         y2="114.21105"
         id="line7357" />
      <line
         fill="none"
         stroke-width="0.248384"
         stroke-linejoin="round"
         stroke="#ff0000"
         stroke-opacity="1"
         x1="50.24194"
         y1="109.81499"
         x2="45.641399"
         y2="114.15993"
         id="line7359" />
    </g>
    <g
       id="g511"
       transform="matrix(1.4603869,0,0,1.4603869,-8.1649454,-9.8211919)"
       inkscape:export-filename="img50a.png"
       inkscape:export-xdpi="96"
       inkscape:export-ydpi="96">
      <g
         id="g7221"
         transform="translate(-17.177118,-40.897899)"
         inkscape:export-filename="img50a.png"
         inkscape:export-xdpi="96"
         inkscape:export-ydpi="96">
        <rect
           x="83.054581"
           y="72.764267"
           fill="#ffffff"
           fill-opacity="1"
           stroke-width="0.174114"
           stroke-linejoin="round"
           stroke="#000000"
           stroke-opacity="1"
           width="29.251139"
           height="6.2681012"
           id="rect4804" />
        <rect
           x="39.177876"
           y="85.300468"
           fill="#ffffff"
           fill-opacity="1"
           stroke-width="0.174114"
           stroke-linejoin="round"
           stroke="#000000"
           stroke-opacity="1"
           width="22.983038"
           height="6.2681012"
           id="rect4758" />
        <rect
           x="39.177876"
           y="72.764267"
           fill="#ffffff"
           fill-opacity="1"
           stroke-width="0.174114"
           stroke-linejoin="round"
           stroke="#000000"
           stroke-opacity="1"
           width="29.251139"
           height="6.2681012"
           id="rect4760" />
        <text
           xml:space="preserve"
           id="text4764"
           x="41.378185"
           y="76.942474"
           style="font-size:0.783513px;stroke-width:0.0652927">		 <tspan
   style="font-size:3.13405px;font-family:'メイリオ'"
   letter-spacing="0em"
   fill="#000000"
   fill-opacity="1"
   stroke-width="0.0130585"
   stroke-linejoin="round"
   id="tspan4762">x</tspan>	</text>
        <text
           xml:space="preserve"
           id="text4768"
           x="51.955608"
           y="76.942474"
           style="font-size:0.783513px;stroke-width:0.0652927">		 <tspan
   style="font-size:3.13405px;font-family:'メイリオ'"
   letter-spacing="0em"
   fill="#000000"
   fill-opacity="1"
   stroke-width="0.0130585"
   stroke-linejoin="round"
   id="tspan4766">z</tspan>	</text>
        <text
           xml:space="preserve"
           id="text4772"
           x="41.312897"
           y="89.217506"
           style="font-size:0.783513px;stroke-width:0.0652927">		 <tspan
   style="font-size:3.13405px;font-family:'メイリオ'"
   letter-spacing="0em"
   fill="#000000"
   fill-opacity="1"
   stroke-width="0.0130585"
   stroke-linejoin="round"
   id="tspan4770">x</tspan>	</text>
        <text
           xml:space="preserve"
           id="text4776"
           x="51.890316"
           y="89.217506"
           style="font-size:0.783513px;stroke-width:0.0652927">		 <tspan
   style="font-size:3.13405px;font-family:'メイリオ'"
   letter-spacing="0em"
   fill="#000000"
   fill-opacity="1"
   stroke-width="0.0130585"
   stroke-linejoin="round"
   id="tspan4774">z</tspan>	</text>
        <rect
           x="52.250069"
           y="94.180275"
           fill="#ffffff"
           fill-opacity="1"
           stroke-width="0.174114"
           stroke-linejoin="round"
           stroke="#000000"
           stroke-opacity="1"
           width="3.3430655"
           height="3.6563923"
           id="rect4778" />
        <text
           xml:space="preserve"
           id="text4782"
           x="51.890316"
           y="96.92205"
           style="font-size:0.783513px;stroke-width:0.0652927">		 <tspan
   style="font-size:3.13405px;font-family:'メイリオ'"
   letter-spacing="0em"
   fill="#000000"
   fill-opacity="1"
   stroke-width="0.0130585"
   stroke-linejoin="round"
   id="tspan4780">z</tspan>	</text>
        <text
           xml:space="preserve"
           id="text4786"
           x="58.484879"
           y="72.176109"
           style="font-size:0.783513px;stroke-width:0.0652927">		 <tspan
   style="font-size:3.13405px;font-family:'メイリオ'"
   letter-spacing="0em"
   fill="#000000"
   fill-opacity="1"
   stroke-width="0.0130585"
   stroke-linejoin="round"
   id="tspan4784">ALS1</tspan>	</text>
        <text
           xml:space="preserve"
           id="text4790"
           x="58.158417"
           y="84.581726"
           style="font-size:0.783513px;stroke-width:0.0652927">		 <tspan
   style="font-size:3.13405px;font-family:'メイリオ'"
   letter-spacing="0em"
   fill="#000000"
   fill-opacity="1"
   stroke-width="0.0130585"
   stroke-linejoin="round"
   id="tspan4788">ALS2</tspan>	</text>
        <text
           xml:space="preserve"
           id="text4794"
           x="38.113552"
           y="68.911469"
           style="font-size:0.783513px;stroke-width:0.0652927">		 <tspan
   style="font-size:3.13405px;font-family:'メイリオ'"
   letter-spacing="0em"
   fill="#000000"
   fill-opacity="1"
   stroke-width="0.0130585"
   stroke-linejoin="round"
   id="tspan4792">RCC:x</tspan>	</text>
        <rect
           x="34.999138"
           y="62.317429"
           fill="none"
           stroke-width="0.174114"
           stroke-linejoin="round"
           stroke="#000000"
           stroke-opacity="1"
           width="37.608608"
           height="37.608608"
           id="rect4796" />
        <rect
           x="83.054581"
           y="85.300468"
           fill="#ffffff"
           fill-opacity="1"
           stroke-width="0.174114"
           stroke-linejoin="round"
           stroke="#000000"
           stroke-opacity="1"
           width="22.983038"
           height="6.2681012"
           id="rect4802" />
        <text
           xml:space="preserve"
           id="text4808"
           x="85.254898"
           y="76.942474"
           style="font-size:0.783513px;stroke-width:0.0652927">		 <tspan
   style="font-size:3.13405px;font-family:'メイリオ'"
   letter-spacing="0em"
   fill="#000000"
   fill-opacity="1"
   stroke-width="0.0130585"
   stroke-linejoin="round"
   id="tspan4806">x</tspan>	</text>
        <text
           xml:space="preserve"
           id="text4812"
           x="95.832314"
           y="76.942474"
           style="font-size:0.783513px;stroke-width:0.0652927">		 <tspan
   style="font-size:3.13405px;font-family:'メイリオ'"
   letter-spacing="0em"
   fill="#000000"
   fill-opacity="1"
   stroke-width="0.0130585"
   stroke-linejoin="round"
   id="tspan4810">z</tspan>	</text>
        <text
           xml:space="preserve"
           id="text4816"
           x="85.189606"
           y="89.217506"
           style="font-size:0.783513px;stroke-width:0.0652927">		 <tspan
   style="font-size:3.13405px;font-family:'メイリオ'"
   letter-spacing="0em"
   fill="#000000"
   fill-opacity="1"
   stroke-width="0.0130585"
   stroke-linejoin="round"
   id="tspan4814">x</tspan>	</text>
        <text
           xml:space="preserve"
           id="text4820"
           x="95.767021"
           y="89.413383"
           style="font-size:0.783513px;stroke-width:0.0652927">		 <tspan
   style="font-size:3.13405px;font-family:'メイリオ'"
   letter-spacing="0em"
   fill="#000000"
   fill-opacity="1"
   stroke-width="0.0130585"
   stroke-linejoin="round"
   id="tspan4818">z</tspan>	</text>
        <rect
           x="96.126778"
           y="93.266174"
           fill="#ffffff"
           fill-opacity="1"
           stroke-width="0.174114"
           stroke-linejoin="round"
           stroke="#000000"
           stroke-opacity="1"
           width="3.3430655"
           height="3.6563795"
           id="rect4822" />
        <text
           xml:space="preserve"
           id="text4826"
           x="95.767021"
           y="96.00795"
           style="font-size:0.783513px;stroke-width:0.0652927">		 <tspan
   style="font-size:3.13405px;font-family:'メイリオ'"
   letter-spacing="0em"
   fill="#000000"
   fill-opacity="1"
   stroke-width="0.0130585"
   stroke-linejoin="round"
   id="tspan4824">z</tspan>	</text>
        <text
           xml:space="preserve"
           id="text4830"
           x="102.36159"
           y="72.176109"
           style="font-size:0.783513px;stroke-width:0.0652927">		 <tspan
   style="font-size:3.13405px;font-family:'メイリオ'"
   letter-spacing="0em"
   fill="#000000"
   fill-opacity="1"
   stroke-width="0.0130585"
   stroke-linejoin="round"
   id="tspan4828">ALS1</tspan>	</text>
        <text
           xml:space="preserve"
           id="text4834"
           x="102.03512"
           y="84.581726"
           style="font-size:0.783513px;stroke-width:0.0652927">		 <tspan
   style="font-size:3.13405px;font-family:'メイリオ'"
   letter-spacing="0em"
   fill="#000000"
   fill-opacity="1"
   stroke-width="0.0130585"
   stroke-linejoin="round"
   id="tspan4832">ALS2</tspan>	</text>
        <text
           xml:space="preserve"
           id="text4838"
           x="81.990257"
           y="68.911469"
           style="font-size:0.783513px;stroke-width:0.0652927">		 <tspan
   style="font-size:3.13405px;font-family:'メイリオ'"
   letter-spacing="0em"
   fill="#000000"
   fill-opacity="1"
   stroke-width="0.0130585"
   stroke-linejoin="round"
   id="tspan4836">RCC:x</tspan>	</text>
        <rect
           x="78.875847"
           y="62.317429"
           fill="none"
           stroke-width="0.174114"
           stroke-linejoin="round"
           stroke="#000000"
           stroke-opacity="1"
           width="37.608608"
           height="37.608608"
           id="rect4840" />
        <text
           xml:space="preserve"
           id="text4844"
           x="99.749878"
           y="89.478676"
           style="font-size:0.783513px;stroke-width:0.0652927">		 <tspan
   style="font-size:3.13405px;font-family:'メイリオ'"
   letter-spacing="0em"
   fill="#000000"
   fill-opacity="1"
   stroke-width="0.0130585"
   stroke-linejoin="round"
   id="tspan4842">z</tspan>	</text>
        <path
           fill="#000000"
           fill-opacity="1"
           stroke-linejoin="round"
           d="m 96.093487,86.367684 h 0.868393 v 0.177467 h -0.868393 z m 1.743315,0 h 0.868394 v 0.177467 h -0.868394 z m 1.736787,0 h 0.874921 v 0.177467 h -0.874921 z m 1.743311,0 h 0.8684 v 0.177467 h -0.8684 z m 1.74332,0 h 0.86839 v 0.177467 h -0.86839 z m 0.97939,0.953742 v 0.887266 h -0.17629 v -0.887266 z m 0,1.774465 v 0.8872 h -0.17629 v -0.8872 z m 0,1.774466 v 0.8872 h -0.17629 v -0.8872 z m 0,1.774398 v 0.887266 h -0.17629 v -0.887266 z m 0,1.774466 v 0.8872 h -0.17629 v -0.8872 z m 0,1.774465 v 0.8872 h -0.17629 v -0.8872 z m -0.22199,1.730083 h -0.8684 v -0.177467 h 0.8684 z m -1.73679,0 h -0.87492 v -0.177467 h 0.87492 z m -1.74332,0 h -0.86839 v -0.177467 h 0.86839 z m -1.743312,0 h -0.868393 v -0.177467 h 0.868393 z m -1.736786,0 h -0.874923 v -0.177467 h 0.874923 z m -1.743316,0 h -0.763925 l -0.0065,-4.66e-4 -0.0065,-0.0012 -0.01306,-0.0021 -0.0065,-0.003 -0.0065,-0.0038 -0.0065,-0.0045 -0.0065,-0.0052 -0.0065,-0.0058 -0.0065,-0.0064 -0.0065,-0.007 v -0.0075 l -0.0065,-0.0078 v -0.0082 l -0.0065,-0.0085 v -0.0087 -0.0087 -0.110859 h 0.17629 v 0.110859 l -0.09141,-0.08871 h 0.763925 z m -0.848805,-1.086891 v -0.887199 h 0.17629 v 0.887199 z m 0,-1.774399 v -0.887266 h 0.17629 v 0.887266 z m 0,-1.774466 v -0.887199 h 0.17629 v 0.887199 z m 0,-1.774465 v -0.8872 h 0.17629 v 0.8872 z m 0,-1.7744 v -0.887265 h 0.17629 v 0.887265 z m 0,-1.774465 v -0.887199 h 0.17629 v 0.887199 z m 0.08488,-1.596999 h 0.874923 v 0.177467 h -0.874923 z"
           id="path4846"
           style="stroke-width:0.0659142" />
        <text
           xml:space="preserve"
           id="text4850"
           x="55.873173"
           y="104.10425"
           style="font-size:0.783513px;stroke-width:0.0652927">		 <tspan
   style="font-size:3.13405px;font-family:'メイリオ'"
   letter-spacing="0em"
   fill="#000000"
   fill-opacity="1"
   stroke-width="0.0130585"
   stroke-linejoin="round"
   id="tspan4848">ALS-XZ(Singly Linked)</tspan>	</text>
        <line
           fill="none"
           stroke-width="0.284289"
           stroke-linejoin="round"
           stroke="#ff0000"
           stroke-opacity="1"
           x1="56.37022"
           y1="93.429321"
           x2="51.430565"
           y2="98.7304"
           id="line4852" />
        <path
           fill="#000000"
           fill-opacity="1"
           stroke-linejoin="round"
           d="m 43.34409,72.419522 v 0.683001 h -0.169761 v -0.683001 z m 0,1.366056 v 0.683001 h -0.169761 v -0.683001 z m 0,1.366003 v 0.683051 h -0.169761 v -0.683051 z m 0,1.366053 v 0.683003 h -0.169761 v -0.683003 z m 0,1.366055 v 0.683001 h -0.169761 v -0.683001 z m 0,1.366003 v 0.683054 h -0.169761 v -0.683054 z m 0,1.366056 v 0.683001 h -0.169761 v -0.683001 z m 0,1.366054 v 0.683002 h -0.169761 v -0.683002 z m 0,1.366003 v 0.683054 h -0.169761 v -0.683054 z m 0,1.366055 v 0.683001 H 43.174329 V 84.71386 Z m 0,1.366055 v 0.683002 h -0.169761 v -0.683002 z m 0,1.366003 v 0.683052 h -0.169761 v -0.683052 z m 0,1.366055 v 0.683002 h -0.169761 v -0.683002 z m 0,1.366054 v 0.683001 h -0.169761 v -0.683001 z m 0,1.366003 v 0.683054 H 43.174329 V 91.54403 Z m 0,1.366004 v 0.143434 h -0.169761 v -0.143434 z m 0,-21.856566 v 0.683053 h -0.169761 v -0.683053 z"
           id="path4756"
           style="stroke-width:0.0578335" />
        <path
           fill="#000000"
           fill-opacity="1"
           stroke-linejoin="round"
           d="m 53.882335,72.769053 v 0.771412 h -0.17629 v -0.771412 z m 0,1.542821 v 0.771468 h -0.17629 v -0.771468 z m 0,1.542879 v 0.771409 h -0.17629 v -0.771409 z m 0,1.542878 v 0.77141 h -0.17629 v -0.77141 z m 0,1.54282 v 0.771468 h -0.17629 v -0.771468 z m 0,1.542878 v 0.771409 h -0.17629 v -0.771409 z m 0,1.542877 v 0.771411 h -0.17629 v -0.771411 z m 0,1.54282 v 0.771468 h -0.17629 v -0.771468 z m 0,1.54288 v 0.771409 h -0.17629 v -0.771409 z m 0,1.542877 v 0.77141 h -0.17629 v -0.77141 z m 0,1.542821 v 0.771468 h -0.17629 v -0.771468 z m 0,1.542878 v 0.77141 h -0.17629 v -0.77141 z m 0,1.542877 v 0.771412 h -0.17629 v -0.771412 z m 0,1.54282 v 0.771468 h -0.17629 v -0.771468 z m 0,1.542879 v 0.771409 h -0.17629 v -0.771409 z m 0,1.542821 v 0.771467 h -0.17629 v -0.771467 z m 0,1.542876 v 0.771421 h -0.17629 v -0.771421 z m 0,-26.228579 v 0.771409 h -0.17629 v -0.771409 z"
           id="path4754"
           style="stroke-width:0.0614627" />
        <path
           fill="#000000"
           fill-opacity="1"
           stroke-linejoin="round"
           d="m 87.389401,71.872413 v 0.683001 H 87.21964 v -0.683001 z m 0,1.366054 v 0.683001 H 87.21964 v -0.683001 z m 0,1.366003 v 0.683053 H 87.21964 V 74.60447 Z m 0,1.366055 v 0.683002 H 87.21964 v -0.683002 z m 0,1.366054 v 0.683002 H 87.21964 v -0.683002 z m 0,1.366004 v 0.683053 H 87.21964 v -0.683053 z m 0,1.366055 v 0.683001 H 87.21964 v -0.683001 z m 0,1.366054 v 0.683002 H 87.21964 v -0.683002 z m 0,1.366003 v 0.683054 H 87.21964 v -0.683054 z m 0,1.366055 v 0.683002 H 87.21964 V 84.16675 Z m 0,1.366054 v 0.683002 H 87.21964 v -0.683002 z m 0,1.366004 v 0.683053 H 87.21964 v -0.683053 z m 0,1.366055 v 0.683001 H 87.21964 v -0.683001 z m 0,1.366054 v 0.683002 H 87.21964 v -0.683002 z m 0,1.366004 v 0.683053 H 87.21964 v -0.683053 z m 0,1.366003 v 0.143434 H 87.21964 v -0.143434 z m 0,-21.856566 v 0.683053 H 87.21964 v -0.683053 z"
           id="path4800"
           style="stroke-width:0.0578335" />
        <path
           fill="#000000"
           fill-opacity="1"
           stroke-linejoin="round"
           d="m 97.927646,72.429747 v 0.799982 h -0.17629 v -0.799982 z m 0,1.599963 v 0.800041 h -0.17629 V 74.02971 Z m 0,1.600022 v 0.799982 h -0.17629 v -0.799982 z m 0,1.600023 v 0.799981 h -0.17629 v -0.799981 z m 0,1.599962 v 0.800041 h -0.17629 v -0.800041 z m 0,1.600023 v 0.79998 h -0.17629 v -0.79998 z m 0,1.600021 v 0.799981 h -0.17629 v -0.799981 z m 0,1.599963 v 0.800041 h -0.17629 v -0.800041 z m 0,1.600022 v 0.799981 h -0.17629 v -0.799981 z m 0,1.600022 v 0.799982 h -0.17629 v -0.799982 z m 0,1.599963 v 0.800041 h -0.17629 v -0.800041 z m 0,1.600022 v 0.799982 h -0.17629 v -0.799982 z m 0,1.600023 v 0.799981 h -0.17629 v -0.799981 z m 0,1.599961 v 0.800041 h -0.17629 v -0.800041 z m 0,1.600023 v 0.799981 h -0.17629 V 94.82976 Z m 0,1.599962 v 0.800041 h -0.17629 v -0.800041 z m 0,1.600023 v 0.79998 h -0.17629 v -0.79998 z m 0,-27.20002 v 0.799981 h -0.17629 v -0.799981 z"
           id="path4798"
           style="stroke-width:0.0625905" />
        <line
           fill="none"
           stroke-width="0.284289"
           stroke-linejoin="round"
           stroke="#ff0000"
           stroke-opacity="1"
           x1="100.18278"
           y1="92.561745"
           x2="95.243126"
           y2="97.862823"
           id="line7168" />
      </g>
    </g>
  </g>
</svg>
